Coordinates
version=1
nRows=15
nColumns=19
inDegrees=yes

Units are S.I. units (second, meters, Newtons, ...)
If the header above contains a line with 'inDegrees', this indicates whether rotational values are in degrees (yes) or radians (no).

endheader
time	pelvis_to_ground_rx	pelvis_to_ground_ry	pelvis_to_ground_rz	pelvis_to_ground_tx	pelvis_to_ground_ty	pelvis_to_ground_tz	left_hip_abduction	left_hip_rotation	left_hip_flexion	left_knee_flexion	left_ankle_flexion	left_subtalar_angle	right_hip_abduction	right_hip_rotation	right_hip_flexion	right_knee_flexion	right_ankle_flexion	right_subtalar_angle
      1.01000000	    100.31129923	      3.22132234	     -4.87241579	     -0.75047744	     -0.68434137	      0.71157593	    -18.65968231	     -5.79220937	     24.27293474	    -37.52083105	      7.48358255	    -11.06566375	     -2.27491948	    -13.33923651	     17.36673494	    -66.37582944	     -8.83062480	     -7.95912108
      1.02000000	    100.31692297	      3.69442328	     -4.97799256	     -0.73978419	     -0.68352185	      0.71469707	    -18.52777605	     -5.94796368	     22.60692617	    -35.94573715	      7.49196382	     -9.99708651	     -1.79288707	    -13.24592650	     19.54263793	    -67.22693891	     -7.41921297	     -6.91095835
      1.03000000	    100.17792337	      4.16203869	     -5.05974055	     -0.72922750	     -0.68278768	      0.71790312	    -18.19900886	     -6.36224418	     20.88976586	    -34.29492583	      7.24611018	     -9.65444451	     -1.22088712	    -12.93677844	     21.64079550	    -67.70991502	     -6.79806984	     -7.04890083
      1.04000000	     99.94703336	      4.63856552	     -4.99046643	     -0.71875567	     -0.68209503	      0.72105621	    -17.77514658	     -6.96206807	     19.01684156	    -32.63684566	      7.13599923	     -9.40716616	     -0.67792837	    -12.52371466	     23.51318745	    -67.86952582	     -6.45528897	     -7.13273348
      1.05000000	     99.59693684	      5.10976628	     -4.95111683	     -0.70839043	     -0.68152325	      0.72411072	    -17.23298956	     -7.60465743	     17.27172671	    -31.10292322	      6.63378769	     -8.97939561	     -0.08517383	    -11.97519828	     25.34827790	    -67.71095656	     -5.41609739	     -7.36994968
      1.06000000	     99.21521022	      5.60665143	     -4.75083936	     -0.69807991	     -0.68098403	      0.72696177	    -16.69085531	     -8.41110327	     15.39566373	    -29.65127167	      6.51191908	     -8.74525706	      0.39407328	    -11.43243749	     26.92753287	    -67.26248866	     -5.08560913	     -7.45246020
      1.07000000	     98.78837776	      6.10625566	     -4.57849923	     -0.68785922	     -0.68054011	      0.72957826	    -16.12690992	     -9.19098768	     13.68021807	    -28.40016603	      5.98555963	     -8.44237033	      0.82867741	    -10.83875247	     28.45361441	    -66.53026783	     -4.16963566	     -7.75706231
      1.08000000	     98.35001180	      6.64722701	     -4.34088496	     -0.67769543	     -0.68016358	      0.73190620	    -15.58879327	    -10.02499150	     12.00016642	    -27.34652943	      5.86244654	     -8.24566620	      1.16275940	    -10.30617333	     29.81539451	    -65.51767706	     -3.92979134	     -7.85897129
      1.09000000	     97.93887541	      7.20515590	     -4.11845982	     -0.66759119	     -0.67986058	      0.73390877	    -15.10590228	    -10.81483626	     10.46070388	    -26.50903303	      5.64767975	     -8.02835856	      1.37771904	     -9.80902522	     31.09698160	    -64.24300840	     -3.61623754	     -8.04019556
      1.10000000	     97.56462421	      7.78191895	     -3.89741134	     -0.65753435	     -0.67960850	      0.73555773	    -14.68698073	    -11.48776902	      9.06290735	    -25.91030276	      5.38878226	     -7.81214932	      1.46583107	     -9.36564889	     32.27044495	    -62.70078219	     -3.32481663	     -8.23721273
      1.11000000	     97.23188654	      8.38509102	     -3.68062492	     -0.64749604	     -0.67942582	      0.73682543	    -14.32487716	    -12.00716696	      7.81963144	    -25.57093497	      5.17256403	     -7.61709064	      1.43793980	     -9.00467045	     33.32576146	    -60.88972142	     -3.14755116	     -8.36817118
      1.12000000	     96.96916809	      8.99877744	     -3.48909599	     -0.63745505	     -0.67928764	      0.73771169	    -14.04028643	    -12.41051180	      6.71607115	    -25.43925535	      4.97895421	     -7.41976804	      1.27565600	     -8.71113160	     34.26829286	    -58.81345748	     -3.06590153	     -8.43370904
      1.13000000	     96.76688429	      9.62412812	     -3.31935894	     -0.62736542	     -0.67919160	      0.73820206	    -13.81622349	    -12.68445066	      5.74415433	    -25.51391549	      4.83758427	     -7.22523517	      1.00271171	     -8.48930668	     35.07303177	    -56.47094947	     -3.09460462	     -8.40604514
      1.14000000	     96.61569482	     10.22638189	     -3.15658038	     -0.61720326	     -0.67913966	      0.73827358	    -13.63178043	    -12.70655962	      4.92110688	    -25.83279329	      4.81401864	     -7.16339072	      0.63436033	     -8.26631168	     35.70741002	    -53.87456413	     -3.11820841	     -8.34026388
      1.15000000	     96.57368200	     10.89408165	     -3.03219990	     -0.60690081	     -0.67911155	      0.73798437	    -13.58232887	    -13.02991499	      4.07182927	    -26.17870004	      4.75862469	     -6.83653123	      0.15055520	     -8.23743996	     36.18651711	    -51.05846417	     -3.53159422	     -7.99383018
